<svg height="448pt" viewBox="0 -23 448.01471 448" width="448pt" xmlns="http://www.w3.org/2000/svg"><path d="m173.746094 189.015625h15c4.417968 0 8-3.582031 8-8s-3.582032-8-8-8h-15c-4.421875 0-8 3.582031-8 8s3.578125 8 8 8zm0 0"/><path d="m173.746094 225.015625h15c4.417968 0 8-3.582031 8-8s-3.582032-8-8-8h-15c-4.421875 0-8 3.582031-8 8s3.578125 8 8 8zm0 0"/><path d="m173.746094 261.015625h15c4.417968 0 8-3.582031 8-8s-3.582032-8-8-8h-15c-4.421875 0-8 3.582031-8 8s3.578125 8 8 8zm0 0"/><path d="m173.746094 297.015625h15c4.417968 0 8-3.582031 8-8s-3.582032-8-8-8h-15c-4.421875 0-8 3.582031-8 8s3.578125 8 8 8zm0 0"/><path d="m173.746094 333.015625h15c4.417968 0 8-3.582031 8-8s-3.582032-8-8-8h-15c-4.421875 0-8 3.582031-8 8s3.578125 8 8 8zm0 0"/><path d="m173.746094 369.015625h15c4.417968 0 8-3.582031 8-8s-3.582032-8-8-8h-15c-4.421875 0-8 3.582031-8 8s3.578125 8 8 8zm0 0"/><path d="m389.996094 189.015625h15c4.417968 0 8-3.582031 8-8s-3.582032-8-8-8h-15c-4.421875 0-8 3.582031-8 8s3.578125 8 8 8zm0 0"/><path d="m389.996094 153.015625h15c4.417968 0 8-3.582031 8-8s-3.582032-8-8-8h-15c-4.421875 0-8 3.582031-8 8s3.578125 8 8 8zm0 0"/><path d="m389.996094 225.015625h15c4.417968 0 8-3.582031 8-8s-3.582032-8-8-8h-15c-4.421875 0-8 3.582031-8 8s3.578125 8 8 8zm0 0"/><path d="m389.996094 261.015625h15c4.417968 0 8-3.582031 8-8s-3.582032-8-8-8h-15c-4.421875 0-8 3.582031-8 8s3.578125 8 8 8zm0 0"/><path d="m389.996094 297.015625h15c4.417968 0 8-3.582031 8-8s-3.582032-8-8-8h-15c-4.421875 0-8 3.582031-8 8s3.578125 8 8 8zm0 0"/><path d="m389.996094 333.015625h15c4.417968 0 8-3.582031 8-8s-3.582032-8-8-8h-15c-4.421875 0-8 3.582031-8 8s3.578125 8 8 8zm0 0"/><path d="m404.996094 353.015625h-15c-4.421875 0-8 3.582031-8 8s3.578125 8 8 8h15c4.417968 0 8-3.582031 8-8s-3.582032-8-8-8zm0 0"/><path d="m30.480469 49.015625h12.800781c4.417969 0 8-3.582031 8-8s-3.582031-8-8-8h-12.800781c-4.417969 0-8 3.582031-8 8s3.582031 8 8 8zm0 0"/><path d="m68.753906 49.015625h12.800782c4.417968 0 8-3.582031 8-8s-3.582032-8-8-8h-12.800782c-4.417968 0-8 3.582031-8 8s3.582032 8 8 8zm0 0"/><path d="m30.480469 85.015625h12.800781c4.417969 0 8-3.582031 8-8s-3.582031-8-8-8h-12.800781c-4.417969 0-8 3.582031-8 8s3.582031 8 8 8zm0 0"/><path d="m68.753906 85.015625h12.800782c4.417968 0 8-3.582031 8-8s-3.582032-8-8-8h-12.800782c-4.417968 0-8 3.582031-8 8s3.582032 8 8 8zm0 0"/><path d="m30.480469 120.015625h12.800781c4.417969 0 8-3.582031 8-8s-3.582031-8-8-8h-12.800781c-4.417969 0-8 3.582031-8 8s3.582031 8 8 8zm0 0"/><path d="m68.753906 120.015625h12.800782c4.417968 0 8-3.582031 8-8s-3.582032-8-8-8h-12.800782c-4.417968 0-8 3.582031-8 8s3.582032 8 8 8zm0 0"/><path d="m30.480469 156.015625h12.800781c4.417969 0 8-3.582031 8-8s-3.582031-8-8-8h-12.800781c-4.417969 0-8 3.582031-8 8s3.582031 8 8 8zm0 0"/><path d="m68.753906 156.015625h12.800782c4.417968 0 8-3.582031 8-8s-3.582032-8-8-8h-12.800782c-4.417968 0-8 3.582031-8 8s3.582032 8 8 8zm0 0"/><path d="m30.480469 191.015625h12.800781c4.417969 0 8-3.582031 8-8s-3.582031-8-8-8h-12.800781c-4.417969 0-8 3.582031-8 8s3.582031 8 8 8zm0 0"/><path d="m68.753906 191.015625h12.800782c4.417968 0 8-3.582031 8-8s-3.582032-8-8-8h-12.800782c-4.417968 0-8 3.582031-8 8s3.582032 8 8 8zm0 0"/><path d="m30.480469 227.015625h12.800781c4.417969 0 8-3.582031 8-8s-3.582031-8-8-8h-12.800781c-4.417969 0-8 3.582031-8 8s3.582031 8 8 8zm0 0"/><path d="m68.753906 227.015625h12.800782c4.417968 0 8-3.582031 8-8s-3.582032-8-8-8h-12.800782c-4.417968 0-8 3.582031-8 8s3.582032 8 8 8zm0 0"/><path d="m30.480469 262.015625h12.800781c4.417969 0 8-3.582031 8-8s-3.582031-8-8-8h-12.800781c-4.417969 0-8 3.582031-8 8s3.582031 8 8 8zm0 0"/><path d="m68.753906 262.015625h12.800782c4.417968 0 8-3.582031 8-8s-3.582032-8-8-8h-12.800782c-4.417968 0-8 3.582031-8 8s3.582032 8 8 8zm0 0"/><path d="m105.753906 49.015625h12.800782c4.417968 0 8-3.582031 8-8s-3.582032-8-8-8h-12.800782c-4.417968 0-8 3.582031-8 8s3.582032 8 8 8zm0 0"/><path d="m105.753906 85.015625h12.800782c4.417968 0 8-3.582031 8-8s-3.582032-8-8-8h-12.800782c-4.417968 0-8 3.582031-8 8s3.582032 8 8 8zm0 0"/><path d="m105.753906 120.015625h12.800782c4.417968 0 8-3.582031 8-8s-3.582032-8-8-8h-12.800782c-4.417968 0-8 3.582031-8 8s3.582032 8 8 8zm0 0"/><path d="m105.753906 156.015625h12.800782c4.417968 0 8-3.582031 8-8s-3.582032-8-8-8h-12.800782c-4.417968 0-8 3.582031-8 8s3.582032 8 8 8zm0 0"/><path d="m105.753906 191.015625h12.800782c4.417968 0 8-3.582031 8-8s-3.582032-8-8-8h-12.800782c-4.417968 0-8 3.582031-8 8s3.582032 8 8 8zm0 0"/><path d="m105.753906 227.015625h12.800782c4.417968 0 8-3.582031 8-8s-3.582032-8-8-8h-12.800782c-4.417968 0-8 3.582031-8 8s3.582032 8 8 8zm0 0"/><path d="m105.753906 262.015625h12.800782c4.417968 0 8-3.582031 8-8s-3.582032-8-8-8h-12.800782c-4.417968 0-8 3.582031-8 8s3.582032 8 8 8zm0 0"/><path d="m30.480469 298.015625h12.800781c4.417969 0 8-3.582031 8-8s-3.582031-8-8-8h-12.800781c-4.417969 0-8 3.582031-8 8s3.582031 8 8 8zm0 0"/><path d="m68.753906 298.015625h12.800782c4.417968 0 8-3.582031 8-8s-3.582032-8-8-8h-12.800782c-4.417968 0-8 3.582031-8 8s3.582032 8 8 8zm0 0"/><path d="m105.753906 298.015625h12.800782c4.417968 0 8-3.582031 8-8s-3.582032-8-8-8h-12.800782c-4.417968 0-8 3.582031-8 8s3.582032 8 8 8zm0 0"/><path d="m243.714844 85.015625h12.796875c4.417969 0 8-3.582031 8-8s-3.582031-8-8-8h-12.796875c-4.417969 0-8 3.582031-8 8s3.582031 8 8 8zm0 0"/><path d="m281.988281 85.015625h12.800781c4.417969 0 8-3.582031 8-8s-3.582031-8-8-8h-12.800781c-4.417969 0-8 3.582031-8 8s3.582031 8 8 8zm0 0"/><path d="m243.714844 120.015625h12.796875c4.417969 0 8-3.582031 8-8s-3.582031-8-8-8h-12.796875c-4.417969 0-8 3.582031-8 8s3.582031 8 8 8zm0 0"/><path d="m281.988281 120.015625h12.800781c4.417969 0 8-3.582031 8-8s-3.582031-8-8-8h-12.800781c-4.417969 0-8 3.582031-8 8s3.582031 8 8 8zm0 0"/><path d="m243.714844 156.015625h12.796875c4.417969 0 8-3.582031 8-8s-3.582031-8-8-8h-12.796875c-4.417969 0-8 3.582031-8 8s3.582031 8 8 8zm0 0"/><path d="m281.988281 156.015625h12.800781c4.417969 0 8-3.582031 8-8s-3.582031-8-8-8h-12.800781c-4.417969 0-8 3.582031-8 8s3.582031 8 8 8zm0 0"/><path d="m243.714844 191.015625h12.796875c4.417969 0 8-3.582031 8-8s-3.582031-8-8-8h-12.796875c-4.417969 0-8 3.582031-8 8s3.582031 8 8 8zm0 0"/><path d="m281.988281 191.015625h12.800781c4.417969 0 8-3.582031 8-8s-3.582031-8-8-8h-12.800781c-4.417969 0-8 3.582031-8 8s3.582031 8 8 8zm0 0"/><path d="m243.714844 227.015625h12.796875c4.417969 0 8-3.582031 8-8s-3.582031-8-8-8h-12.796875c-4.417969 0-8 3.582031-8 8s3.582031 8 8 8zm0 0"/><path d="m281.988281 227.015625h12.800781c4.417969 0 8-3.582031 8-8s-3.582031-8-8-8h-12.800781c-4.417969 0-8 3.582031-8 8s3.582031 8 8 8zm0 0"/><path d="m243.714844 262.015625h12.796875c4.417969 0 8-3.582031 8-8s-3.582031-8-8-8h-12.796875c-4.417969 0-8 3.582031-8 8s3.582031 8 8 8zm0 0"/><path d="m281.988281 262.015625h12.800781c4.417969 0 8-3.582031 8-8s-3.582031-8-8-8h-12.800781c-4.417969 0-8 3.582031-8 8s3.582031 8 8 8zm0 0"/><path d="m318.988281 85.015625h12.800781c4.417969 0 8-3.582031 8-8s-3.582031-8-8-8h-12.800781c-4.417969 0-8 3.582031-8 8s3.582031 8 8 8zm0 0"/><path d="m243.714844 49.015625h12.796875c4.417969 0 8-3.582031 8-8s-3.582031-8-8-8h-12.796875c-4.417969 0-8 3.582031-8 8s3.582031 8 8 8zm0 0"/><path d="m281.988281 49.015625h12.800781c4.417969 0 8-3.582031 8-8s-3.582031-8-8-8h-12.800781c-4.417969 0-8 3.582031-8 8s3.582031 8 8 8zm0 0"/><path d="m318.988281 49.015625h12.800781c4.417969 0 8-3.582031 8-8s-3.582031-8-8-8h-12.800781c-4.417969 0-8 3.582031-8 8s3.582031 8 8 8zm0 0"/><path d="m318.988281 120.015625h12.800781c4.417969 0 8-3.582031 8-8s-3.582031-8-8-8h-12.800781c-4.417969 0-8 3.582031-8 8s3.582031 8 8 8zm0 0"/><path d="m318.988281 156.015625h12.800781c4.417969 0 8-3.582031 8-8s-3.582031-8-8-8h-12.800781c-4.417969 0-8 3.582031-8 8s3.582031 8 8 8zm0 0"/><path d="m318.988281 191.015625h12.800781c4.417969 0 8-3.582031 8-8s-3.582031-8-8-8h-12.800781c-4.417969 0-8 3.582031-8 8s3.582031 8 8 8zm0 0"/><path d="m318.988281 227.015625h12.800781c4.417969 0 8-3.582031 8-8s-3.582031-8-8-8h-12.800781c-4.417969 0-8 3.582031-8 8s3.582031 8 8 8zm0 0"/><path d="m318.988281 262.015625h12.800781c4.417969 0 8-3.582031 8-8s-3.582031-8-8-8h-12.800781c-4.417969 0-8 3.582031-8 8s3.582031 8 8 8zm0 0"/><path d="m264.515625 290.015625c0-4.417969-3.578125-8-8-8h-12.796875c-4.417969 0-8 3.582031-8 8s3.582031 8 8 8h12.796875c4.421875 0 8-3.582031 8-8zm0 0"/><path d="m281.988281 298.015625h12.800781c4.417969 0 8-3.582031 8-8s-3.582031-8-8-8h-12.800781c-4.417969 0-8 3.582031-8 8s3.582031 8 8 8zm0 0"/><path d="m318.988281 298.015625h12.800781c4.417969 0 8-3.582031 8-8s-3.582031-8-8-8h-12.800781c-4.417969 0-8 3.582031-8 8s3.582031 8 8 8zm0 0"/><path d="m440.496094 107.015625h-77.488282v-99.5c0-4.417969-3.835937-7.5-8.253906-7.5h-134c-2.042968-.1015625-4.035156.644531-5.503906 2.066406s-2.28125 3.390625-2.242188 5.433594v125.40625l-63-24.003906v-101.402344c0-4.417969-4.070312-7.5-8.488281-7.5h-134c-2.015625-.09375-3.980469.664063-5.410156 2.09375-1.429687 1.425781-2.1953125 3.390625-2.1015625 5.40625v385c0 4.417969 3.0937495 8.5 7.5117185 8.5h134c.039063 0 .074219 0 .113281-.003906.039063-.007813.074219.003906.113282.003906h298.75c4.417968 0 7.511718-4.082031 7.511718-8.5v-278c.089844-2.015625-.671874-3.980469-2.101562-5.40625-1.429688-1.429687-3.394531-2.1875-5.410156-2.09375zm-380.488282 278v-55h29v55zm74 0h-29v-63.5c.082032-2.023437-.691406-3.984375-2.128906-5.410156-1.4375-1.429688-3.40625-2.183594-5.429687-2.089844h-45.859375c-2.023438-.097656-4 .660156-5.4375 2.085937-1.441406 1.425782-2.21875 3.390626-2.144532 5.414063v63.5h-28v-369h118zm79 0h-63v-258.898437l63 23.925781zm16-369h118v96.519531c0 .632813-1 1.296875-1 1.980469v270.5h-27v-63.5c0-4.417969-3.90625-7.5-8.324218-7.5h-45.859375c-4.421875 0-7.816407 3.082031-7.816407 7.5v63.5h-28zm44 369v-55h30v55zm159 0h-69v-262h69zm0 0"/></svg>